<?xml version="1.0" encoding="UTF-8"?>
<svg version="1.1" xmlns="http://www.w3.org/2000/svg" width="186" height="109">
<path d="M0 0 C61.38 0 122.76 0 186 0 C186 35.97 186 71.94 186 109 C124.62 109 63.24 109 0 109 C0 73.03 0 37.06 0 0 Z " fill="#333333" transform="translate(0,0)"/>
<path d="M0 0 C6.63719288 6.2784257 8.19744054 14.88886328 8.4765625 23.66772461 C8.57195822 34.94131236 7.65827649 46.06534409 0 55 C-9.42769075 63.52280079 -19.60238448 65.5728756 -32 65 C-42.02988021 64.02418653 -50.31756685 61.94667726 -57 54 C-65.18234946 42.93955668 -65.06982387 30.2684906 -64 17 C-62.62869595 9.88636024 -59.64406393 3.66451565 -54 -1 C-37.35330078 -12.16672991 -15.94509928 -12.73643454 0 0 Z " fill="#FCFCFC" transform="translate(82,27)"/>
<path d="M0 0 C6.001875 -0.061875 12.00375 -0.12375 18.1875 -0.1875 C20.05301514 -0.21481201 21.91853027 -0.24212402 23.84057617 -0.27026367 C37.17318549 -0.3841214 50.43834795 0.00521533 60.7109375 9.59765625 C67.5376645 16.90724931 68.53764048 24.66037705 68.4375 34.3125 C68.42920166 35.3341626 68.42090332 36.3558252 68.41235352 37.40844727 C68.17866672 47.80626224 66.28606955 55.70203812 58.90625 63.34765625 C47.85247534 72.92910436 31.97765163 71.25708692 18.3125 71.125 C12.269375 71.08375 6.22625 71.0425 0 71 C0 47.57 0 24.14 0 0 Z " fill="#FCFCFC" transform="translate(100,19)"/>
<path d="M0 0 C3.125 1.5 3.125 1.5 5 4 C6.75006239 9.73596961 7.35521933 14.95870598 7.3125 20.9375 C7.30730347 22.12001343 7.30730347 22.12001343 7.30200195 23.32641602 C7.18501946 29.57690065 6.77259781 35.61743068 2.6328125 40.66796875 C-0.17900133 42.96181687 -3.50023588 43.09942512 -7 43 C-10.92234923 41.74188798 -12.50322348 40.81906573 -14.64526367 37.28735352 C-16.10847536 33.73677767 -16.3735463 31.28649327 -16.36328125 27.46484375 C-16.36263672 26.24345703 -16.36199219 25.02207031 -16.36132812 23.76367188 C-16.34521484 22.50103516 -16.32910156 21.23839844 -16.3125 19.9375 C-16.31572266 18.67099609 -16.31894531 17.40449219 -16.32226562 16.09960938 C-16.26019683 5.41813359 -16.26019683 5.41813359 -14 1 C-9.81415558 -1.09292221 -4.55950679 -0.42003467 0 0 Z " fill="#343434" transform="translate(59,34)"/>
<path d="M0 0 C1.42042065 -0.03232095 2.84105757 -0.05521182 4.26171875 -0.07421875 C5.05280029 -0.08799561 5.84388184 -0.10177246 6.65893555 -0.1159668 C11.58356961 0.12797951 14.98947658 1.96288386 18.375 5.4375 C21.79239147 10.82646348 21.21754503 16.61765819 21.25 22.8125 C21.270625 23.78509766 21.29125 24.75769531 21.3125 25.75976562 C21.34409768 31.59348786 20.97935058 35.91635285 18 41 C14.9375 41.9375 14.9375 41.9375 11 42 C10.12730469 42.02449219 9.25460938 42.04898438 8.35546875 42.07421875 C5.89060148 42.12006034 3.46032473 42.16025104 1 42 C0 41 0 41 -0.11352539 37.12280273 C-0.11336621 35.39305833 -0.10766849 33.66330919 -0.09765625 31.93359375 C-0.0962413 31.02497086 -0.09482635 30.11634796 -0.09336853 29.18019104 C-0.08775193 26.26592779 -0.07519665 23.35174019 -0.0625 20.4375 C-0.05748714 18.46679798 -0.05292386 16.49609476 -0.04882812 14.52539062 C-0.03777711 9.68356441 -0.02050138 4.84179505 0 0 Z " fill="#353535" transform="translate(123,33)"/>
</svg>
