<?xml version="1.0" standalone="no"?>
<svg version="1.0" xmlns="http://www.w3.org/2000/svg"
 width="297.000000pt" height="213.000000pt" viewBox="0 0 297.000000 213.000000"
 preserveAspectRatio="xMidYMid meet">
<g transform="translate(0.000000,213.000000) scale(0.100000,-0.100000)"
fill="#ffffff" stroke="none">
<path d="M50 1685 l0 -385 888 -2 c488 -1 973 -2 1077 -1 105 1 353 2 553 2
l362 1 0 385 0 385 -1440 0 -1440 0 0 -385z m493 265 c128 -64 190 -232 138
-371 -92 -242 -407 -257 -513 -24 -17 39 -22 67 -21 130 0 44 6 94 12 110 32
79 107 151 182 174 56 17 148 8 202 -19z m1425 6 c39 -20 45 -31 38 -62 -7
-27 -35 -32 -83 -13 -45 17 -127 13 -169 -9 -75 -39 -114 -104 -114 -192 0
-77 46 -151 115 -187 32 -17 121 -22 168 -10 26 7 27 10 27 72 l0 64 -62 3
c-57 3 -63 5 -66 26 -6 43 13 52 108 52 63 0 91 -4 99 -14 8 -9 11 -52 9 -127
l-3 -114 -50 -25 c-38 -19 -70 -26 -130 -28 -75 -4 -84 -1 -145 30 -71 37
-129 102 -149 168 -19 64 -14 159 13 215 31 65 98 130 161 155 60 24 183 22
233 -4z m-821 -3 c69 -32 109 -136 79 -207 -8 -20 -26 -47 -41 -61 l-25 -26
25 -33 c15 -20 27 -52 31 -82 3 -27 15 -61 25 -76 24 -35 24 -55 0 -68 -27
-14 -68 6 -88 43 -8 16 -17 54 -20 84 -8 74 -27 86 -149 91 l-93 4 -3 -102
c-3 -91 -5 -104 -23 -116 -18 -12 -24 -11 -43 2 -22 15 -22 18 -22 278 0 190
3 265 12 274 20 20 291 16 335 -5z m293 -9 c11 -27 14 -492 4 -518 -10 -26
-41 -38 -64 -26 -19 10 -20 21 -20 278 0 284 1 292 47 292 16 0 27 -8 33 -26z
m790 7 c6 -12 10 -118 10 -275 0 -248 -1 -255 -21 -270 -22 -15 -48 -11 -61 8
-14 20 -9 531 4 544 18 18 56 14 68 -7z m366 -188 l159 -207 5 199 c4 174 7
199 23 209 12 8 22 8 35 0 15 -10 17 -36 20 -275 2 -260 2 -264 -19 -282 -19
-15 -25 -16 -43 -4 -12 8 -88 102 -171 209 l-150 195 -3 -191 c-2 -180 -3
-192 -23 -208 -16 -13 -26 -15 -40 -8 -18 10 -19 25 -19 278 0 195 3 271 12
280 33 33 53 15 214 -195z"/>
<path d="M384 1890 c-92 -21 -146 -95 -147 -204 -1 -80 28 -143 84 -182 79
-54 199 -30 248 49 99 161 -18 375 -185 337z"/>
<path d="M890 1790 l0 -100 94 0 c52 0 102 3 111 6 29 11 50 69 46 127 -1 10
-12 29 -26 42 -22 23 -31 25 -125 25 l-100 0 0 -100z"/>
<path d="M62 1172 c-10 -7 -12 -124 -10 -553 l3 -544 280 0 c269 0 282 1 338
24 118 47 212 164 253 316 22 81 30 269 15 348 -43 223 -167 368 -349 406 -61
13 -510 15 -530 3z m510 -63 c203 -43 312 -216 313 -494 0 -105 -4 -131 -28
-206 -32 -97 -80 -167 -148 -216 -74 -53 -134 -63 -381 -63 l-218 0 0 495 0
495 205 0 c113 0 228 -5 257 -11z"/>
<path d="M1205 1168 c-3 -7 -4 -256 -3 -553 l3 -540 315 -3 c286 -2 316 -1
327 15 30 40 7 43 -298 43 l-289 0 0 240 0 240 258 2 257 3 0 25 0 25 -257 3
-258 2 0 225 0 225 289 0 c244 0 290 2 301 15 10 12 10 18 0 30 -11 13 -60 15
-327 15 -242 0 -315 -3 -318 -12z"/>
<path d="M2013 1173 c-7 -2 -13 -13 -13 -22 0 -20 413 -1023 436 -1059 18 -27
40 -28 53 -3 23 43 441 1055 441 1068 0 20 -29 28 -46 12 -7 -8 -104 -232
-215 -499 -111 -267 -202 -486 -203 -487 -2 -2 -92 212 -200 475 -109 262
-204 487 -212 500 -15 22 -19 24 -41 15z"/>
</g>
</svg>
