<?xml version="1.0" standalone="no"?>
<!DOCTYPE svg PUBLIC "-//W3C//DTD SVG 20010904//EN"
 "http://www.w3.org/TR/2001/REC-SVG-20010904/DTD/svg10.dtd">
<svg version="1.0" xmlns="http://www.w3.org/2000/svg"
 width="1368.000000pt" height="225.000000pt" viewBox="0 0 1368.000000 225.000000"
 preserveAspectRatio="xMidYMid meet">
<metadata>
Created by potrace 1.10, written by Peter Selinger 2001-2011
</metadata>
<g transform="translate(0.000000,225.000000) scale(0.100000,-0.100000)"
fill="#ffffff" stroke="none">
<path d="M0 1135 l0 -1115 4253 2 4252 3 3 1113 2 1112 -4255 0 -4255 0 0
-1115z m1184 850 c169 -24 274 -66 395 -158 76 -57 109 -91 163 -167 71 -101
124 -228 157 -380 26 -114 6 -355 -39 -477 -83 -225 -210 -374 -404 -477 -38
-20 -76 -36 -85 -36 -9 0 -28 -6 -43 -14 -32 -17 -191 -39 -263 -37 -187 6
-356 70 -512 196 -179 144 -308 466 -290 723 22 303 136 526 352 689 49 37
154 89 198 98 17 4 37 11 43 16 6 5 56 15 110 23 55 7 102 14 105 15 3 0 54
-6 113 -14z m4251 -5 c61 -7 124 -18 142 -26 17 -8 38 -14 46 -14 30 0 103
-40 137 -75 30 -31 35 -43 35 -83 0 -107 -94 -150 -216 -99 -76 32 -108 40
-191 48 -118 10 -229 -2 -302 -35 -32 -14 -63 -26 -68 -26 -5 0 -41 -25 -82
-55 -80 -61 -164 -167 -192 -243 -9 -26 -23 -62 -31 -81 -11 -24 -15 -71 -15
-166 0 -111 4 -143 22 -199 13 -37 27 -69 31 -72 5 -3 9 -12 9 -21 0 -18 85
-140 115 -165 11 -9 36 -31 56 -47 41 -35 130 -81 204 -106 112 -37 432 -9
471 42 21 28 20 326 -2 347 -13 13 -42 16 -164 16 l-148 0 -30 28 c-59 55 -50
154 17 199 33 22 41 23 275 23 354 0 335 22 336 -392 1 -288 -4 -331 -39 -372
-45 -52 -270 -137 -417 -157 -76 -10 -121 -10 -217 -1 -143 14 -187 26 -322
92 -186 90 -355 281 -423 475 -43 124 -45 140 -45 305 1 159 2 168 33 258 17
51 42 111 55 135 13 23 33 59 44 80 30 54 116 149 196 215 49 40 210 123 285
146 67 21 214 44 255 40 17 -1 80 -8 140 -14z m-2303 -26 c137 -35 265 -139
323 -262 34 -71 58 -200 50 -267 -16 -125 -54 -203 -151 -304 -76 -80 -85 -97
-59 -107 21 -8 103 -118 126 -168 10 -23 19 -54 19 -70 0 -63 32 -243 47 -266
9 -13 31 -39 50 -56 28 -26 33 -38 33 -75 0 -51 -18 -83 -60 -104 -55 -28
-116 -13 -190 46 -77 62 -104 131 -120 304 -17 177 -49 237 -150 275 -50 19
-544 27 -565 10 -13 -10 -15 -54 -15 -269 0 -145 -5 -272 -10 -293 -28 -100
-164 -114 -232 -24 l-23 31 -3 680 c-2 374 0 721 3 772 6 88 8 93 43 127 l35
36 395 0 c324 0 405 -3 454 -16z m934 -9 c65 -50 64 -38 64 -837 0 -807 3
-777 -71 -824 -45 -28 -74 -30 -126 -9 -77 31 -73 -17 -73 841 0 504 4 772 10
784 6 11 27 31 48 45 49 33 104 33 148 0z m2337 5 c70 -41 67 -7 67 -831 0
-715 -1 -741 -20 -778 -21 -42 -77 -81 -116 -81 -42 0 -100 36 -118 74 -14 31
-16 110 -16 786 0 736 0 753 20 785 38 62 120 82 183 45z m647 3 c17 -10 62
-58 100 -108 191 -247 379 -492 505 -657 76 -101 157 -206 180 -234 22 -28 65
-83 95 -122 30 -40 61 -72 68 -72 9 0 12 115 12 543 0 343 4 556 10 579 22 77
116 113 175 66 56 -44 55 -24 55 -830 0 -687 -1 -746 -18 -778 -21 -42 -75
-80 -114 -80 -67 0 -95 30 -402 431 -28 36 -100 130 -161 209 -60 78 -128 166
-150 195 -22 29 -89 117 -150 195 -60 79 -116 151 -124 161 -7 11 -19 19 -27
19 -11 0 -14 -98 -16 -557 -3 -517 -4 -560 -21 -591 -19 -35 -68 -62 -110 -62
-13 0 -41 15 -63 34 l-39 34 -3 713 c-2 393 0 746 3 786 6 65 10 75 42 107 30
30 43 36 79 36 23 0 56 -8 74 -17z"/>
<path d="M1005 1730 c-121 -12 -265 -97 -339 -200 -71 -99 -100 -174 -121
-314 -24 -170 9 -339 96 -474 57 -89 130 -154 229 -201 72 -34 80 -36 200 -39
121 -4 126 -3 208 30 207 83 338 278 356 533 8 100 -11 241 -38 293 -9 17 -16
36 -16 43 0 7 -20 45 -45 84 -54 87 -150 175 -220 200 -27 10 -55 22 -61 27
-11 8 -138 29 -164 26 -8 0 -46 -4 -85 -8z"/>
<path d="M2483 1723 c-10 -3 -13 -69 -13 -278 0 -150 3 -280 6 -289 5 -14 38
-16 268 -16 143 0 278 4 298 9 60 14 117 67 152 140 28 59 31 76 31 157 0 81
-3 97 -30 149 -34 66 -87 111 -151 125 -40 10 -539 12 -561 3z"/>
<path d="M8826 1944 c-14 -14 -16 -103 -16 -828 0 -775 1 -814 18 -829 17 -15
56 -17 358 -17 414 0 494 9 616 68 164 80 280 237 337 454 65 247 63 444 -10
680 -34 113 -78 193 -153 279 -56 64 -186 159 -218 159 -11 0 -32 7 -47 15
-51 26 -190 35 -533 35 -293 0 -339 -2 -352 -16z m714 -79 c136 -18 183 -34
272 -93 122 -81 189 -178 241 -353 56 -184 58 -386 6 -589 -66 -259 -238 -428
-468 -459 -47 -6 -217 -11 -382 -11 -261 0 -298 2 -303 16 -3 9 -6 343 -6 744
0 649 2 730 16 744 13 14 51 16 263 16 163 0 286 -5 361 -15z"/>
<path d="M10582 1940 l-22 -21 0 -803 0 -803 23 -21 c23 -22 25 -22 487 -22
410 0 465 2 481 16 19 17 15 42 -9 62 -12 9 -115 12 -436 12 -232 0 -427 4
-434 9 -17 10 -18 697 -1 718 9 10 87 13 384 13 318 0 374 2 385 15 17 21 4
61 -22 69 -13 3 -186 6 -385 6 -199 0 -364 4 -367 9 -11 18 -7 654 4 665 7 8
149 13 448 16 l437 5 3 23 c8 53 16 52 -487 52 -456 0 -468 0 -489 -20z"/>
<path d="M13141 1943 c-12 -10 -40 -63 -62 -118 -22 -55 -51 -124 -64 -153
-14 -29 -25 -55 -25 -58 0 -3 -6 -20 -14 -37 -8 -18 -31 -72 -51 -122 -20 -49
-45 -109 -56 -132 -10 -24 -19 -45 -19 -49 0 -3 -22 -58 -49 -122 -145 -344
-185 -439 -197 -471 -61 -163 -83 -206 -104 -206 -18 0 -26 11 -41 50 -11 28
-24 59 -29 70 -5 11 -34 81 -65 155 -31 74 -67 160 -81 191 -13 31 -24 60 -24
63 0 4 -10 28 -22 54 -22 50 -82 192 -128 307 -15 39 -47 115 -70 170 -23 55
-53 127 -67 160 -13 33 -30 74 -37 90 -8 17 -19 46 -25 65 -19 61 -48 100 -75
100 -41 0 -50 -22 -31 -77 9 -26 20 -52 24 -58 4 -5 32 -71 61 -145 29 -74 67
-167 86 -207 18 -40 36 -85 40 -100 4 -15 10 -33 15 -38 4 -6 17 -35 29 -65
11 -30 30 -74 40 -97 11 -24 20 -45 20 -47 0 -4 93 -229 125 -301 7 -16 16
-40 20 -53 4 -13 22 -56 40 -97 18 -40 59 -137 90 -216 31 -79 61 -150 67
-156 15 -19 52 -16 70 5 14 15 59 121 192 452 26 63 53 128 61 143 8 16 15 33
15 38 0 5 13 37 29 71 26 57 47 108 111 268 12 30 33 78 45 105 40 87 85 197
85 206 0 9 49 122 75 172 8 16 15 36 15 46 0 9 6 25 13 36 7 11 19 35 27 53
11 29 11 35 -5 52 -22 24 -27 25 -54 3z"/>
</g>
</svg>
